<?xml version="1.0" encoding="utf-8"?>
<!-- Generator: Adobe Illustrator 26.0.1, SVG Export Plug-In . SVG Version: 6.00 Build 0)  -->
<svg version="1.1" id="图层_1" xmlns="http://www.w3.org/2000/svg" xmlns:xlink="http://www.w3.org/1999/xlink" x="0px" y="0px"
	 viewBox="0 0 200 200" style="enable-background:new 0 0 200 200;" xml:space="preserve">
<style type="text/css">
	.st0{fill:#1E1E1E;}
</style>
<path class="st0" d="M161.1,10.2c4.8,4.8,4.8,12.6,0,17.4c0,0,0,0,0,0l-11.2,11.2h11.5c20.3,0,36.8,16.5,36.8,36.8c0,0,0,0,0,0v73.6
	c0,20.3-16.5,36.8-36.8,36.8H38.6c-20.3,0-36.8-16.5-36.8-36.8V75.6c0-20.3,16.5-36.8,36.8-36.8c0,0,0,0,0,0h11.4L38.9,27.6
	c-4.9-4.7-5-12.5-0.3-17.4s12.5-5,17.4-0.3c0.1,0.1,0.2,0.2,0.3,0.3l26,26c0.8,0.8,1.4,1.6,1.9,2.5h31.5c0.5-0.9,1.2-1.8,2-2.5
	l26-26C148.5,5.5,156.3,5.5,161.1,10.2C161.1,10.2,161.1,10.2,161.1,10.2z M161.4,63.5H38.6c-6.4,0-11.8,5-12.2,11.4l0,0.9v73.6
	c0,6.5,5,11.8,11.4,12.2l0.9,0h122.7c6.4,0,11.8-5,12.2-11.4l0-0.9V75.7C173.6,69,168.1,63.5,161.4,63.5L161.4,63.5z M63.2,88
	c6.8,0,12.3,5.5,12.3,12.3v12.3c0,6.8-5.5,12.3-12.3,12.3c-6.8,0-12.3-5.5-12.3-12.3c0,0,0,0,0,0v-12.3C50.9,93.5,56.4,88,63.2,88z
	 M136.8,88c6.8,0,12.3,5.5,12.3,12.3v12.3c0,6.8-5.5,12.3-12.3,12.3c-6.8,0-12.3-5.5-12.3-12.3v-12.3C124.5,93.5,130,88,136.8,88
	L136.8,88z"/>
</svg>
