<?xml version="1.0" encoding="utf-8"?>
<!-- Generator: Adobe Illustrator 26.0.1, SVG Export Plug-In . SVG Version: 6.00 Build 0)  -->
<svg version="1.1" id="图层_1" xmlns="http://www.w3.org/2000/svg" xmlns:xlink="http://www.w3.org/1999/xlink" x="0px" y="0px"
	 viewBox="0 0 64 64" style="enable-background:new 0 0 64 64;" xml:space="preserve">
<style type="text/css">
	.st0{fill:#1E1E1E;}
</style>
<path class="st0" d="M59.9,0.9c-8.1,0-15.5,0.6-22.7-0.1c-8.5-0.8-15.1,1.6-20.8,7.8c-3.5,3.8-7.7,6.8-12.2,10.7
	c3.8,0,6.8,0.1,9.7,0c2.7-0.2,4.6,0.1,4.6,3.6c0,3,2,5.1,4.3,6.9c2.8,2.2,6.1,2.2,9.6,2.2c-1,2.8-0.3,5.2,1.4,7.9
	c-1.9,0.3-3.3,0.5-4.8,0.7c-3.4,0.5-6.7,1.3-9.6,3.3c-3.3,2.3-5.4,5.4-5,9.6c0.4,4.1,3,6.6,6.6,8.1c7.9,3.2,15.6,2.5,22.7-2.1
	c7.2-4.6,7.6-13.8,1.2-19.4c-0.7-0.6-1.5-1.2-2.3-1.9c-5.2-4.3-5.3-5.4-0.3-10c4.2-3.9,5.8-8.4,3.8-13.9c-0.4-1-0.7-1.7,0.4-2.5
	c2.6-2,5.1-4.1,7.8-6.2c0.2,0.7,0.3,1,0.3,1.2c-1.9,7.7-0.4,15.5-0.9,23.3c-0.1,1.2,0.4,2.2,1.7,2.4c1.3,0.2,2.2-0.6,2.2-1.9
	c0-7.2,0.3-14.5-0.3-21.6C57,5.7,56.3,3.2,59.9,0.9z M42.6,47.1c1.2,1.5,1.9,3.1,1.8,5c0.1,3.2-1.4,5.4-4.2,6.7
	c-5.6,2.6-11,1.8-16-1.5c-4.7-3.1-4.6-9.6-0.1-12.7C30.4,40.3,37.8,41.3,42.6,47.1z M36.1,29.4c-3.6,1.3-6.5-0.1-8.6-3.1
	c-2.6-3.8-3.7-8-2.7-12.5c0.6-2.7,2.1-4.6,5-5.2c2.7-0.6,4.8,0.5,6.5,2.4c2.9,3.1,3.8,7,4.2,10.9C40.3,25.3,39.5,28.2,36.1,29.4z"/>
</svg>
