<?xml version="1.0" encoding="utf-8"?>
<!-- Generator: Adobe Illustrator 26.0.1, SVG Export Plug-In . SVG Version: 6.00 Build 0)  -->
<svg version="1.1" id="Capa_1" xmlns="http://www.w3.org/2000/svg" xmlns:xlink="http://www.w3.org/1999/xlink" x="0px" y="0px"
	 viewBox="0 0 510 510" style="enable-background:new 0 0 510 510;" xml:space="preserve">
<style type="text/css">
	.st0{fill:#FFFFFF;stroke:#FFFFFF;stroke-width:4;stroke-miterlimit:10;}
	.st1{font-family:'CurlzMT';}
	.st2{font-size:277px;}
	.st3{fill:#ECA600;}
</style>
<path d="M192.9,366.8l-77.4-77.4c-26.7-26.7-26.7-69.9,0-96.5l77.4-77.4c26.7-26.7,69.9-26.7,96.5,0l77.4,77.4
	c26.7,26.7,26.7,69.9,0,96.5l-77.4,77.4C262.7,393.4,219.5,393.4,192.9,366.8z"/>
<text transform="matrix(1.2297 0 0 1 158.4053 333.6475)" class="st0 st1 st2">L</text>
<path class="st3" d="M250.1,91.2c0,0-4.8,2.7-6.5,6.3c-0.7,1.5-0.3,2.5,2.5,0.8c4-2.4,7.5-4.3,11.8-5.8c4.7-1.7,13.2-3.7,13.9-3.4
	c0.3,0.1,0.3,0.6-0.2,1.1c-12.1,11.1-13.4,19.5-10.1,20.8c1.6,0.6,4.4,0.3,6.9-0.5c2.5-0.8,4.9-1.8,7.6-1.9
	c6.5-0.2,9.2,12.1,2.2,23.7c-3.9,6.5-14.4,14.8-15.1,14.5c-0.3-0.1-0.4-0.5-0.3-1.1c0.1-0.4,3.8-8.6,0.9-10
	c-0.5-0.2-1.6,0.1-2.7,2.7c-1.4,3.4-2.5,4-3.1,3.9c-0.6-0.1-0.4-1.1-0.3-1.7c0.1-0.6,0.2-1.2-0.1-0.9c-0.4,0.2-3.7,4-4.7,3.9
	c-0.4,0-0.6-0.4-0.4-1c0.2-0.6,0.5-1.3,0.5-1.3s-5.7,5.6-12.8,6.9c-0.5,0.1-1.9,0.4-2.4,0.2c-0.2-0.1-0.4-0.7,0-1
	c0.5-0.3,7.9-4.2,11.1-9.6c1-1.6,1-2.5,0.7-2.9c-0.6-1.1-3.8,0-5.9,0.9c-2.1,0.9-5.2,2.7-9.2,3.4c-4.9,0.8-10.8-0.7-13.8-4.4
	c-3.5-4.4-3.7-8.6-3.2-13c1.6-13.6,14.6-22.2,19.1-25c5.4-3.4,13.5-6.8,14.2-6.6C250.8,90.2,250.9,90.7,250.1,91.2"/>
</svg>
