<?xml version="1.0" encoding="utf-8"?>
<!-- Generator: Adobe Illustrator 26.0.1, SVG Export Plug-In . SVG Version: 6.00 Build 0)  -->
<svg version="1.1" id="Layer_1" xmlns="http://www.w3.org/2000/svg" xmlns:xlink="http://www.w3.org/1999/xlink" x="0px" y="0px"
	 viewBox="0 0 512 512" style="enable-background:new 0 0 512 512;" xml:space="preserve">
<style type="text/css">
	.st0{fill:#202120;}
</style>
<path class="st0" d="M59.7,162.8V477H24.1C10.8,477,0,465.5,0,451.4V116.5l39,1.2L59.7,162.8z"/>
<path class="st0" d="M512,116.5v334.9c0,14.1-10.8,25.6-24.2,25.6h-35.6V162.8l19.8-49.4L512,116.5z"/>
<path class="st0" d="M512,78.9v33.7c0,5.3-1.6,10.2-4.3,13.4l-55.4,63.4L262.2,406.8c-3.7,4.3-8.7,4.3-12.4,0L59.7,189.3L4.3,126
	c-2.7-3.1-4.3-8.1-4.3-13.4V95.4C0,65.4,15.5,41,34.7,41l0,0c2.2,0,4.4,1.1,6.2,3.2l208.9,239.1c3.7,4.3,8.7,4.3,12.4,0L471.1,44.2
	c1.8-2,4-3.2,6.2-3.2h10.5C501.2,41,512,58,512,78.9z"/>
<polygon class="st0" points="59.7,162.8 0,152.9 0,116.5 "/>
</svg>
